# xmcd
# Track frame offsets:
# 210
# 12832
# 27832
# 35890
# 49565
# 60132
# 69662
# 83150
# 97690
# 110345
# 118762
# 133645
# 142427
# 154307
# 167992
# 178127
# 191650
# 200957
#
# Disc length: 2823 seconds
# Revision: 0
# Processed by: cddbd v1.4PL0 Copyright (c) Steve Scherf et al.
# Submitted via: VisiTrax 2.9.5.181 - For more info visit www.synapsa.com
#
DISCID=040b0512
DTITLE=Willie Nelson - The Willie Nelson Collection
DYEAR=1987
DGENRE=Country
TTITLE0=The Shelter Of Your Arms
TTITLE1=Face of A Fighter
TTITLE2=Things To Remember
TTITLE3=A Moment Isn't Very Long
TTITLE4=Blame It On The Times
TTITLE5=Building Heartaches
TTITLE6=Undo The Right
TTITLE7=Will You Remember Mine
TTITLE8=Any Old Arms Won't Do
TTITLE9=Slw Down Old World
TTITLE10=and So Will You My Love
TTITLE11=Why Are You Picking On Me
TTITLE12=I Hope So
TTITLE13=Everything But You
TTITLE14=Healing Hands Of Time
TTITLE15=No Tomorrow In Sight
TTITLE16=One Step Beyond
TTITLE17=Go Away
EXTD=ECD3073
EXTT0=
EXTT1=
EXTT2=
EXTT3=
EXTT4=
EXTT5=
EXTT6=
EXTT7=
EXTT8=
EXTT9=
EXTT10=
EXTT11=
EXTT12=
EXTT13=
EXTT14=
EXTT15=
EXTT16=
EXTT17=
PLAYORDER=
